HIERARCHY
ROOT Hips
{
	OFFSET -3.958830 18.904000 13.208200
	CHANNELS 6 Xposition Yposition Zposition Zrotation Yrotation Xrotation 
	JOINT LHipJoint
	{
		OFFSET 0.000000 0.000000 0.000000
		CHANNELS 3 Zrotation Yrotation Xrotation
		JOINT LeftUpLeg
		{
			OFFSET 1.800000 -1.400000 0.085000
			CHANNELS 3 Zrotation Yrotation Xrotation
			JOINT LeftLeg
			{
				OFFSET 2.215000 -6.000000 0.000000
				CHANNELS 3 Zrotation Yrotation Xrotation
				JOINT LeftFoot
				{
					OFFSET 2.500000 -6.900000 0.000000
					CHANNELS 3 Zrotation Yrotation Xrotation
					JOINT LeftToeBase
					{
						OFFSET 0.200000 -0.500000 1.950000
						CHANNELS 3 Zrotation Yrotation Xrotation
						End Site
						{
							OFFSET 0.000000 0.000000 0.000000
						}
					}
				}
			}
		}
	}
	JOINT RHipJoint
	{
		OFFSET 0.000000 0.000000 0.000000
		CHANNELS 3 Zrotation Yrotation Xrotation
		JOINT RightUpLeg
		{
			OFFSET -1.800000 -1.400000 0.085000
			CHANNELS 3 Zrotation Yrotation Xrotation
			JOINT RightLeg
			{
				OFFSET -2.215000 -6.000000 0.000000
				CHANNELS 3 Zrotation Yrotation Xrotation
				JOINT RightFoot
				{
					OFFSET -2.500000 -6.900000 0.000000
					CHANNELS 3 Zrotation Yrotation Xrotation
					JOINT RightToeBase
					{
						OFFSET -0.200000 -0.500000 1.950000
						CHANNELS 3 Zrotation Yrotation Xrotation
						End Site
						{
							OFFSET 0.000000 0.000000 0.000000
						}
					}
				}
			}
		}
	}
	JOINT LowerBack
	{
		OFFSET 0.000000 0.000000 0.000000
		CHANNELS 3 Zrotation Yrotation Xrotation
		JOINT Spine
		{
			OFFSET -0.087000 1.940000 -0.288900
			CHANNELS 3 Zrotation Yrotation Xrotation
			JOINT Spine1
			{
				OFFSET 0.000000 1.950000 0.060000
				CHANNELS 3 Zrotation Yrotation Xrotation
				JOINT Neck
				{
					OFFSET 0.000000 0.000000 0.000000
					CHANNELS 3 Zrotation Yrotation Xrotation
					JOINT Neck1
					{
						OFFSET 0.000000 1.600000 0.340000
						CHANNELS 3 Zrotation Yrotation Xrotation
						JOINT Head
						{
							OFFSET 0.000000 1.667000 -0.240000
							CHANNELS 3 Zrotation Yrotation Xrotation
							End Site
							{
								OFFSET 0.000000 0.000000 0.000000
							}
						}
					}
				}
				JOINT LeftShoulder
				{
					OFFSET 0.000000 0.000000 0.000000
					CHANNELS 3 Zrotation Yrotation Xrotation
					JOINT LeftArm
					{
						OFFSET 2.700000 1.550000 -0.730000
						CHANNELS 3 Zrotation Yrotation Xrotation
						JOINT LeftForeArm
						{
							OFFSET 5.450000 0.000000 0.000000
							CHANNELS 3 Zrotation Yrotation Xrotation
							JOINT LeftHand
							{
								OFFSET 3.450000 0.000000 0.000000
								CHANNELS 3 Zrotation Yrotation Xrotation
								JOINT LeftHandIndex1
								{
									OFFSET 0.750000 0.000000 0.000000
									CHANNELS 3 Zrotation Yrotation Xrotation
									End Site
									{
										OFFSET 0.000000 0.000000 0.000000
									}
								}
							}
						}
					}
				}
				JOINT RightShoulder
				{
					OFFSET 0.000000 0.000000 0.000000
					CHANNELS 3 Zrotation Yrotation Xrotation
					JOINT RightArm
					{
						OFFSET -2.700000 1.550000 -0.730000
						CHANNELS 3 Zrotation Yrotation Xrotation
						JOINT RightForeArm
						{
							OFFSET -5.450000 0.000000 0.000000
							CHANNELS 3 Zrotation Yrotation Xrotation
							JOINT RightHand
							{
								OFFSET -3.450000 0.000000 0.000000
								CHANNELS 3 Zrotation Yrotation Xrotation
								JOINT RightHandIndex1
								{
									OFFSET -0.750000 0.000000 0.000000
									CHANNELS 3 Zrotation Yrotation Xrotation
									End Site
									{
										OFFSET 0.000000 0.000000 0.000000
									}
								}
							}
						}
					}
				}
			}
		}
	}
}
MOTION
Frames: 8
Frame Time: 0.016667
6.983160 16.367210 10.930950 18.621251 1.013013 -11.900707 -14.560616 11.980148 4.265061 -18.829003 -3.676666 -9.065219 0.349651 3.679172 18.102709 0.027685 3.326348 3.415790 0.005470 -0.096040 0.000610 18.887413 -11.952502 2.117390 -11.275923 -1.260440 -9.054925 -2.626077 -3.623881 12.901675 -0.044657 -3.461292 3.163147 -0.029210 0.109770 0.021600 -5.396380 0.998638 -7.774276 12.344399 -1.720424 15.413571 -27.814078 3.747904 9.595418 5.294403 -5.007478 -12.257399 -17.440048 6.790623 54.787369 -1.595190 -0.420930 8.796530 -11.094994 -10.165183 1.153414 11.797027 -8.909449 -4.445018 37.360117 -14.472233 -3.674672 -3.918992 3.054471 0.046250 0.063810 -0.077530 0.025690 -0.787939 13.109801 9.519226 -19.887126 -7.149639 0.311382 -13.496340 14.179633 -0.216796 2.697798 -1.624485 -0.059330 0.029160 0.048400 -0.015320 
6.931470 16.359950 11.009350 16.316630 1.073088 -12.211578 -14.604581 11.917299 4.360678 -20.912248 -2.229889 -5.269441 2.933948 2.985315 15.224621 0.026374 3.274323 3.425691 -0.006670 -0.134520 0.027930 18.905236 -11.819722 2.141669 -7.832405 -1.335573 -7.600600 -4.252032 -3.259904 13.217144 -0.079812 -3.452184 3.159687 -0.051530 0.086310 0.041610 -5.355489 0.872757 -7.774875 13.152859 -1.706115 14.762456 -25.689362 3.648186 10.602144 4.985485 -4.237981 -12.469390 -16.421012 6.317900 57.956832 -2.528110 -0.246220 9.458490 -10.434265 -12.055152 1.569550 16.109369 -10.448760 -4.650278 36.251581 -11.798018 -2.933640 -3.915027 3.019588 0.076600 0.058680 -0.059260 -0.001280 -0.636463 14.354911 9.640539 -20.798150 -6.178018 -0.184839 -16.245737 14.832529 -0.481179 2.712850 -1.602540 -0.062950 0.012190 0.065430 -0.039230 
6.926440 16.366640 11.067120 14.905498 1.496386 -13.016161 -14.625208 11.816529 4.419620 -22.031629 -1.595911 -2.909160 5.441797 2.428945 14.209533 0.033703 3.285315 3.390444 0.034060 -0.074300 0.066240 18.927959 -11.725775 2.168315 -6.651828 -1.493390 -5.652737 -4.272930 -3.369702 13.142119 -0.150986 -3.560470 3.123534 -0.022710 0.038250 0.033330 -5.364102 0.843991 -7.774298 14.044218 -2.087667 15.383864 -24.132397 3.326571 11.908512 4.694005 -4.219721 -12.721218 -16.928715 7.412118 60.282149 -2.037140 0.450490 8.158350 -9.162586 -13.139487 2.036627 18.164286 -11.418480 -4.834781 36.545677 -12.323068 -3.117075 -3.855192 2.981689 0.116720 0.027320 -0.014900 -0.016600 -1.109864 15.158126 9.475740 -21.795672 -5.608507 -0.717736 -19.616849 16.752569 -0.957981 2.711584 -1.599450 -0.053290 0.020160 0.052440 -0.055580 
6.901230 16.377340 11.136360 13.685429 2.321199 -13.689575 -14.649937 11.879276 4.392513 -21.574002 -1.057344 -1.105694 6.705117 2.229423 13.050003 0.086376 3.272553 3.381355 0.055400 -0.049710 0.096880 18.907196 -11.648340 2.269125 -5.381252 -1.640600 -3.887640 -4.186495 -3.471248 12.893551 -0.233355 -3.618556 3.104211 -0.041200 -0.023510 0.022430 -5.304783 0.649764 -7.836123 14.003222 -2.542552 16.025603 -22.729416 2.871668 12.429850 4.535535 -3.776977 -13.978389 -16.800786 7.367586 63.568104 -1.848640 0.098560 8.236820 -8.454380 -15.689854 2.954189 21.202204 -10.959517 -5.339660 37.281690 -12.148354 -3.095490 -3.785932 2.953875 0.160820 -0.029780 0.043260 -0.018780 -1.234085 17.588847 10.447098 -22.315857 -5.854599 -1.537576 -22.926900 17.122280 -1.389656 2.777994 -1.578086 -0.027160 0.012120 0.026110 -0.058560 
6.870090 16.386990 11.178150 12.103054 1.928283 -15.139415 -14.639914 11.931072 4.275259 -19.983515 -0.596090 0.736688 7.593969 2.157814 12.305244 0.127642 3.303016 3.356677 0.103430 0.003240 0.150620 18.905439 -11.656954 2.436968 -3.823790 -1.780286 -1.783448 -3.792884 -3.669696 12.951157 -0.330566 -3.763155 3.050182 -0.031430 -0.092110 0.017630 -5.298097 0.712127 -7.871425 14.552214 -2.887228 17.638473 -21.231347 2.613004 13.504275 4.625973 -3.102921 -14.484841 -15.087806 6.681939 66.685802 -2.107790 0.028610 7.953060 -8.884716 -17.741337 3.723942 22.948589 -9.551635 -5.943855 41.213559 -11.564160 -3.337712 -3.757903 2.968727 0.190090 -0.075070 0.095960 -0.017070 -0.731256 19.287642 10.782309 -23.154975 -5.083898 -2.528250 -27.006516 17.826993 -2.149915 2.827684 -1.591947 0.001290 -0.003820 -0.015000 -0.069490 
6.843300 16.357630 11.227230 11.739442 0.666638 -16.073690 -14.605743 11.892221 4.257473 -19.516435 -0.291080 1.882752 8.305802 2.119539 11.878756 0.159555 3.354545 3.351171 0.084890 -0.010870 0.133330 18.927115 -11.710750 2.547790 -3.136728 -1.851783 -0.560708 -3.936204 -3.706911 12.703785 -0.356768 -3.869451 3.033021 -0.040490 -0.081120 0.003900 -5.349284 0.918274 -7.949156 14.276054 -3.296626 19.336260 -21.068129 2.299628 13.623092 4.359786 -3.085008 -14.538594 -13.670695 6.077182 65.171940 -1.856060 0.294850 7.842650 -8.534979 -18.904044 4.228683 26.521196 -5.381286 -6.007332 47.647977 -12.961379 -4.155947 -3.800787 2.980683 0.181090 -0.069400 0.082090 -0.015680 -0.499822 20.761117 10.873374 -24.228052 -3.136172 -3.519115 -30.355035 19.006979 -3.006805 2.862245 -1.614259 -0.007340 0.001270 -0.012360 -0.067440 
6.816200 16.349460 11.263890 11.588800 -0.167490 -16.875657 -14.552684 11.765646 4.218796 -19.354668 -0.114199 2.604821 9.467388 1.936812 12.088002 0.162527 3.403984 3.334288 0.119500 0.047170 0.150000 18.985301 -11.787882 2.624015 -2.831146 -1.907677 0.445186 -3.484704 -3.875873 12.455168 -0.403556 -3.993427 2.993285 -0.002120 -0.080180 0.010710 -5.492321 1.301092 -7.952892 14.815965 -3.757746 20.380819 -21.877163 2.168812 14.138927 4.445527 -3.431454 -13.912807 -12.749764 5.951461 62.064196 -1.882160 0.983250 5.258180 -7.980443 -18.479344 4.320381 26.818201 -2.115363 -6.034643 51.727156 -12.291673 -4.475215 -3.839569 3.011865 0.175460 -0.064370 0.091740 -0.007440 -1.194898 20.814772 10.236888 -24.517203 0.281312 -4.566485 -33.996510 21.463902 -4.354334 2.833051 -1.641412 -0.000810 0.018350 -0.024370 -0.064900 
6.776700 16.347980 11.292630 11.891268 -1.371627 -18.199315 -14.520538 11.683158 4.221295 -19.239466 0.183959 3.730910 9.840889 1.969254 12.388526 0.150080 3.492679 3.276389 0.183480 0.133180 0.220330 19.009140 -11.856819 2.683723 -3.171276 -1.949098 1.702081 -2.812250 -4.149632 12.185296 -0.484480 -4.124044 2.931325 0.046590 -0.133200 0.029520 -5.553813 1.585646 -7.970139 15.264894 -3.759305 21.926057 -22.263839 2.510568 14.317017 4.795981 -3.957943 -13.690216 -12.496638 7.392161 59.861770 -2.726350 3.856580 1.540780 -8.056007 -18.622378 4.533980 27.143908 1.028603 -6.242263 56.744333 -11.672961 -4.902683 -3.878574 3.029901 0.219420 -0.082400 0.149070 -0.018370 -1.784335 21.727019 9.758381 -25.166101 3.807444 -6.120011 -37.906575 22.568042 -5.711872 2.821184 -1.636259 0.009110 0.020960 -0.046050 -0.096750 
